<?xml version="1.0" standalone="no"?>
<!DOCTYPE svg PUBLIC "-//W3C//DTD SVG 1.1//EN" "http://www.w3.org/Graphics/SVG/1.1/DTD/svg11.dtd" >
<svg>
<metadata>
Created by FontForge 20110222 at Mon Mar  7 04:45:45 2011
 By www-data
NIGMA FONTS   [e-mail]  kentpw@norwich.net
</metadata>
<defs>
<font id="NanosecondThinBRK" horiz-adv-x="419" >
  <font-face 
    font-family="Nanosecond Thin BRK"
    font-weight="100"
    font-stretch="normal"
    units-per-em="1000"
    panose-1="2 0 2 3 0 0 0 0 0 0"
    ascent="842"
    descent="-158"
    x-height="368"
    cap-height="684"
    bbox="25 -158 709 842"
    underline-thickness="20"
    underline-position="-143"
    unicode-range="U+0021-00E6"
  />
    <missing-glyph />
    <glyph glyph-name="exclam" unicode="!" horiz-adv-x="102" 
d="M77 658c0 14 -12 26 -26 26c-15 0 -26 -11 -26 -26v-474c0 -17 9 -26 26 -26c15 0 26 11 26 26v474zM77 26c0 14 -12 27 -26 27c-15 0 -26 -11 -26 -27c0 -17 9 -26 26 -26c15 0 26 11 26 26z" />
    <glyph glyph-name="quotedbl" unicode="&#x22;" horiz-adv-x="260" 
d="M77 658c0 14 -12 26 -26 26c-15 0 -26 -11 -26 -26v-158c0 -17 9 -26 26 -26s26 9 26 26v158zM235 658c0 14 -12 26 -26 26s-27 -12 -27 -26v-158c0 -15 11 -26 27 -26c17 0 26 9 26 26v158z" />
    <glyph glyph-name="numbersign" unicode="#" horiz-adv-x="477" 
d="M344 237v210c0 19 8 27 26 27h55c18 0 27 9 27 26c0 15 -11 26 -27 26h-55c-17 0 -26 8 -26 27v105c0 15 -11 26 -27 26c-15 0 -26 -11 -26 -26v-105c0 -21 -6 -24 -26 -27h-53c-17 0 -26 8 -26 27v105c0 14 -12 26 -26 26s-27 -12 -27 -26v-105c0 -17 -10 -27 -26 -27
h-55c-14 0 -27 -12 -27 -26c0 -15 11 -26 27 -26h55c15 0 26 -11 26 -27v-210c0 -17 -10 -27 -26 -27h-55c-18 0 -27 -9 -27 -26c0 -15 11 -26 27 -26h55c15 0 26 -5 26 -27v-105c0 -15 11 -26 27 -26c15 0 26 11 26 26v105c0 21 6 24 26 27h53c17 0 26 -10 26 -27v-105
c0 -16 10 -26 26 -26c14 0 27 12 27 26v105c0 21 6 24 26 27h55c14 0 27 12 27 26c0 15 -11 26 -27 26h-55c-17 0 -26 8 -26 27zM265 210h-53c-17 0 -26 8 -26 27v210c0 17 10 27 26 27h53c15 0 26 -11 26 -27v-210c0 -17 -10 -27 -26 -27z" />
    <glyph glyph-name="dollar" unicode="$" 
d="M78 500c0 59 35 111 85 125c17 3 35 12 47 23c11 -11 24 -17 46 -23c52 -15 85 -70 85 -125c0 -15 11 -26 27 -26c17 0 26 9 26 26c0 85 -53 158 -128 177c-20 4 -30 15 -30 33v106c0 14 -12 26 -26 26s-27 -12 -27 -26v-106c0 -23 -8 -26 -33 -34
c-74 -22 -125 -94 -125 -176c0 -107 76 -184 185 -184c79 0 131 -52 131 -132c0 -58 -36 -111 -85 -125c-15 -3 -36 -13 -46 -23c-11 11 -26 18 -47 23c-50 14 -85 66 -85 125c0 14 -12 26 -26 26c-18 0 -27 -9 -27 -26c0 -83 55 -158 129 -177c18 -4 29 -16 29 -33v-106
c0 -15 11 -26 27 -26c14 0 26 12 26 26v106c0 20 8 28 34 34c73 22 124 94 124 176c0 107 -77 184 -184 184c-79 0 -132 53 -132 132z" />
    <glyph glyph-name="percent" unicode="%" 
d="M25 579c0 -59 46 -105 106 -105c61 0 105 44 105 105s-44 105 -105 105c-59 0 -106 -47 -106 -105zM78 579c0 29 24 52 53 52s52 -23 52 -52c0 -31 -22 -53 -52 -53c-31 0 -53 22 -53 53zM394 105c0 61 -44 105 -105 105c-59 0 -106 -47 -106 -105
c0 -59 46 -105 106 -105c61 0 105 44 105 105zM341 105c0 -29 -23 -52 -52 -52c-31 0 -53 22 -53 52s23 53 53 53c29 0 52 -24 52 -53zM394 658c0 14 -12 26 -26 26s-27 -12 -27 -26c0 -62 -38 -129 -202 -375c-77 -116 -114 -199 -114 -257c0 -15 11 -26 27 -26
c15 0 26 11 26 26c0 61 37 122 207 382c72 112 109 187 109 250z" />
    <glyph glyph-name="ampersand" unicode="&#x26;" 
d="M78 500c0 59 35 111 85 125c17 3 35 12 47 23c11 -11 24 -17 46 -23c52 -15 85 -70 85 -125c0 -15 11 -26 27 -26c17 0 26 9 26 26c0 85 -53 158 -128 177c-20 4 -30 15 -30 33v106c0 14 -12 26 -26 26s-27 -12 -27 -26v-106c0 -23 -8 -26 -33 -34
c-74 -22 -125 -94 -125 -176c0 -65 32 -127 84 -159c-57 -35 -84 -85 -84 -157c0 -89 42 -147 127 -175c21 -4 31 -16 31 -35v-106c0 -15 11 -26 27 -26c14 0 26 12 26 26v106c0 19 11 31 34 36c89 29 124 95 124 174c0 14 -12 26 -26 26c-18 0 -27 -9 -27 -26
c0 -64 -29 -105 -86 -123c-14 -3 -34 -13 -45 -24c-15 14 -27 20 -46 24c-57 18 -86 59 -86 123c0 80 53 132 133 132c14 0 25 11 25 26s-11 26 -26 26c-79 0 -132 53 -132 132z" />
    <glyph glyph-name="quotesingle" unicode="'" horiz-adv-x="102" 
d="M77 658c0 14 -12 26 -26 26c-15 0 -26 -11 -26 -26v-158c0 -17 9 -26 26 -26s26 9 26 26v158z" />
    <glyph glyph-name="parenleft" unicode="(" horiz-adv-x="260" 
d="M209 631c15 0 26 11 26 27c0 14 -12 26 -26 26c-109 0 -184 -75 -184 -184v-316c0 -109 75 -184 184 -184c15 0 26 11 26 26c0 14 -12 27 -26 27c-82 0 -132 50 -132 131v316c0 79 52 131 132 131z" />
    <glyph glyph-name="parenright" unicode=")" horiz-adv-x="260" 
d="M235 500c0 109 -75 184 -184 184c-15 0 -26 -11 -26 -26c0 -18 9 -27 26 -27c81 0 131 -50 131 -131v-316c0 -81 -50 -131 -131 -131c-15 0 -26 -11 -26 -27c0 -17 9 -26 26 -26c109 0 184 75 184 184v316z" />
    <glyph glyph-name="asterisk" unicode="*" horiz-adv-x="404" 
d="M379 548c0 22 -9 26 -35 26l-70 -21c-40 0 -40 0 -46 52v53c0 13 -14 26 -26 26c-18 0 -27 -9 -27 -26v-53c0 -41 -12 -53 -34 -53c-11 0 -21 2 -32 6l-50 16c-26 0 -31 -4 -34 -25c0 -14 6 -22 18 -25l50 -17c18 -6 42 -23 43 -31c0 -11 -9 -34 -18 -46l-31 -42
c-3 -5 -5 -10 -5 -16c0 -15 11 -27 25 -27c9 0 16 4 23 12l31 42c11 16 30 30 40 32c10 -1 30 -16 41 -32l31 -42c5 -7 12 -11 21 -11c15 0 27 11 27 26c0 5 -2 11 -5 16l-31 42c-12 17 -14 22 -18 44c0 12 18 25 41 33l52 17c11 3 17 11 19 24z" />
    <glyph glyph-name="plus" unicode="+" 
d="M394 342c0 14 -12 26 -26 26h-106c-17 0 -26 8 -26 27v105c0 14 -12 26 -26 26s-27 -12 -27 -26v-105c0 -21 -6 -24 -26 -27h-105c-18 0 -27 -9 -27 -26c0 -15 11 -26 27 -26h105c17 0 26 -10 26 -27v-105c0 -15 11 -26 27 -26c15 0 26 11 26 26v105c0 15 5 27 27 27h105
c17 0 26 9 26 26z" />
    <glyph glyph-name="comma" unicode="," horiz-adv-x="103" 
d="M78 26c0 15 -12 27 -27 27s-26 -11 -26 -27v-158c0 -15 11 -26 26 -26c14 0 27 12 27 26v158z" />
    <glyph glyph-name="period" unicode="." horiz-adv-x="102" 
d="M77 26c0 14 -12 27 -26 27c-15 0 -26 -11 -26 -27c0 -17 9 -26 26 -26c15 0 26 11 26 26z" />
    <glyph glyph-name="slash" unicode="/" 
d="M394 658c0 14 -12 26 -26 26s-27 -12 -27 -26c0 -62 -38 -129 -202 -375c-77 -116 -114 -199 -114 -257c0 -15 11 -26 27 -26c15 0 26 11 26 26c0 61 37 122 207 382c72 112 109 187 109 250z" />
    <glyph glyph-name="zero" unicode="0" 
d="M394 500c0 107 -77 184 -184 184c-110 0 -185 -75 -185 -184v-316c0 -107 76 -184 185 -184s184 75 184 184v316zM341 500v-316c0 -81 -50 -131 -131 -131c-82 0 -132 50 -132 131v316c0 81 51 131 132 131s131 -50 131 -131z" />
    <glyph glyph-name="one" unicode="1" horiz-adv-x="102" 
d="M77 658c0 14 -12 26 -26 26c-15 0 -26 -11 -26 -26v-632c0 -17 9 -26 26 -26c15 0 26 11 26 26v632z" />
    <glyph glyph-name="two" unicode="2" 
d="M78 184c0 78 54 132 132 132c109 0 184 75 184 184c0 107 -77 184 -184 184c-110 0 -185 -75 -185 -184c0 -15 11 -26 27 -26c17 0 26 9 26 26c0 81 51 131 132 131s131 -50 131 -131c0 -80 -52 -132 -131 -132c-110 0 -185 -75 -185 -184v-105c0 -46 33 -79 79 -79h264
c15 0 26 11 26 26c0 14 -12 27 -26 27h-264c-20 0 -23 6 -26 26v105z" />
    <glyph glyph-name="three" unicode="3" 
d="M310 341c52 32 84 94 84 159c0 107 -77 184 -184 184c-110 0 -185 -75 -185 -184c0 -15 11 -26 27 -26c17 0 26 9 26 26c0 81 51 131 132 131s131 -50 131 -131c0 -80 -52 -132 -131 -132c-18 0 -27 -9 -27 -26c0 -15 11 -26 27 -26c80 0 131 -52 131 -132
c0 -82 -49 -131 -131 -131s-132 49 -132 131c0 14 -12 26 -26 26c-18 0 -27 -9 -27 -26c0 -97 64 -184 185 -184c109 0 184 75 184 184c0 72 -27 122 -84 157z" />
    <glyph glyph-name="four" unicode="4" 
d="M394 658c0 14 -12 26 -26 26s-27 -12 -27 -26v-263c0 -21 -6 -24 -26 -27h-211c-17 0 -26 8 -26 27v263c0 14 -12 26 -26 26s-27 -12 -27 -26v-263c0 -46 33 -79 79 -79h211c15 0 26 -5 26 -27v-263c0 -15 11 -26 27 -26c15 0 26 11 26 26v263c0 22 -6 40 -19 53
c13 14 19 31 19 53v263z" />
    <glyph glyph-name="five" unicode="5" 
d="M78 605c0 17 10 26 27 26h263c15 0 26 11 26 27c0 14 -12 26 -26 26h-264c-45 0 -79 -33 -79 -79v-210c0 -46 33 -79 79 -79h106c80 0 131 -52 131 -132c0 -82 -49 -131 -131 -131h-158c-15 0 -27 -12 -27 -27s11 -26 27 -26h158c109 0 184 75 184 184
c0 108 -76 184 -184 184h-106c-17 0 -26 8 -26 27v210z" />
    <glyph glyph-name="six" unicode="6" 
d="M78 500c0 81 51 131 132 131s131 -50 131 -131c0 -15 11 -26 27 -26c17 0 26 9 26 26c0 107 -77 184 -184 184c-110 0 -185 -75 -185 -184v-105c0 -21 6 -38 19 -53c-13 -15 -19 -32 -19 -53v-105c0 -97 64 -184 185 -184c109 0 184 75 184 184c0 108 -76 184 -184 184
h-106c-17 0 -26 8 -26 27v105zM104 316h106c80 0 131 -52 131 -132c0 -82 -49 -131 -131 -131s-132 49 -132 131v105c0 17 10 27 26 27z" />
    <glyph glyph-name="seven" unicode="7" 
d="M394 605c0 48 -34 79 -79 79h-263c-14 0 -27 -12 -27 -26c0 -15 12 -27 27 -27h263c16 0 26 -10 26 -26c0 -14 -19 -85 -78 -282c-53 -180 -80 -279 -80 -297c0 -15 11 -26 27 -26c15 0 26 11 26 26c0 17 24 105 78 282c53 182 80 281 80 297z" />
    <glyph glyph-name="eight" unicode="8" 
d="M310 341c52 32 84 94 84 159c0 107 -77 184 -184 184c-110 0 -185 -75 -185 -184c0 -65 32 -127 84 -159c-57 -35 -84 -85 -84 -157c0 -97 64 -184 185 -184c109 0 184 75 184 184c0 72 -27 122 -84 157zM341 184c0 -82 -49 -131 -131 -131s-132 49 -132 131
c0 78 54 132 132 132c80 0 131 -52 131 -132zM210 368c-79 0 -132 53 -132 132c0 81 51 131 132 131s131 -50 131 -131c0 -80 -52 -132 -131 -132z" />
    <glyph glyph-name="nine" unicode="9" 
d="M394 500c0 107 -77 184 -184 184c-110 0 -185 -75 -185 -184c0 -97 64 -184 185 -184h105c15 0 26 -5 26 -27v-263c0 -15 11 -26 27 -26c15 0 26 11 26 26v263c0 22 -6 40 -19 53c13 14 19 31 19 53v105zM341 500v-105c0 -21 -6 -24 -26 -27h-105c-80 0 -132 52 -132 132
c0 79 52 131 132 131c81 0 131 -50 131 -131z" />
    <glyph glyph-name="colon" unicode=":" horiz-adv-x="102" 
d="M77 26c0 14 -12 27 -26 27c-15 0 -26 -11 -26 -27c0 -17 9 -26 26 -26c15 0 26 11 26 26zM77 500c0 14 -12 26 -26 26c-15 0 -26 -11 -26 -26c0 -17 9 -26 26 -26s26 9 26 26z" />
    <glyph glyph-name="semicolon" unicode=";" horiz-adv-x="103" 
d="M78 26c0 15 -12 27 -27 27s-26 -11 -26 -27v-158c0 -15 11 -26 26 -26c14 0 27 12 27 26v158zM78 500c0 15 -11 26 -27 26c-15 0 -26 -11 -26 -26c0 -16 10 -26 26 -26c18 0 27 9 27 26z" />
    <glyph glyph-name="less" unicode="&#x3c;" 
d="M368 474c17 0 26 9 26 26c0 14 -12 26 -26 26c-101 0 -164 -45 -281 -137c-18 -14 -30 -21 -35 -21c-18 0 -27 -9 -27 -26c0 -15 11 -26 27 -26c5 0 11 -3 31 -18c149 -115 189 -140 285 -140c15 0 26 11 26 26c0 14 -12 26 -26 26c-79 0 -122 29 -256 132
c134 103 177 132 256 132z" />
    <glyph glyph-name="equal" unicode="=" 
d="M394 447c0 14 -12 27 -26 27h-316c-15 0 -27 -12 -27 -27s11 -26 27 -26h316c15 0 26 11 26 26zM394 237c0 14 -12 26 -26 26h-316c-14 0 -27 -12 -27 -26c0 -15 12 -27 27 -27h316c15 0 26 11 26 27z" />
    <glyph glyph-name="greater" unicode="&#x3e;" 
d="M394 342c0 14 -12 26 -26 26c-5 0 -7 1 -45 28c-95 84 -186 130 -271 130c-14 0 -27 -12 -27 -26c0 -15 11 -26 27 -26c78 0 116 -24 255 -132c-134 -103 -177 -132 -255 -132c-18 0 -27 -9 -27 -26c0 -15 11 -26 27 -26c96 0 143 31 280 137c19 14 31 21 36 21
c17 0 26 9 26 26z" />
    <glyph glyph-name="question" unicode="?" 
d="M394 500c0 107 -77 184 -184 184c-110 0 -185 -75 -185 -184c0 -15 11 -26 27 -26c17 0 26 9 26 26c0 81 51 131 132 131s131 -50 131 -131c0 -58 -36 -111 -85 -125c-43 -6 -73 -41 -73 -86v-105c0 -15 11 -26 27 -26c15 0 26 11 26 26v105c0 20 10 29 34 35
c75 22 124 93 124 176zM236 26c0 14 -12 27 -26 27c-15 0 -27 -12 -27 -27s11 -26 27 -26c15 0 26 11 26 26z" />
    <glyph glyph-name="at" unicode="@" horiz-adv-x="734" 
d="M709 500c0 109 -75 184 -184 184h-316c-109 0 -184 -75 -184 -184v-316c0 -107 77 -184 184 -184h316c14 0 27 12 27 26c0 15 -12 27 -27 27h-316c-82 0 -131 49 -131 131v316c0 79 52 131 132 131h315c81 0 132 -50 132 -131v-263c0 -18 -9 -27 -27 -27h-52
c-17 0 -26 8 -26 27v52c0 21 -6 38 -19 53c13 14 19 31 19 53c0 86 -62 131 -132 131h-53c-15 0 -26 -11 -26 -26c0 -16 10 -26 26 -26h53c49 0 79 -30 79 -80c0 -17 -8 -26 -27 -26h-210c-46 0 -79 -33 -79 -79c0 -78 54 -131 132 -131h158c19 0 37 6 52 19
c13 -13 30 -19 53 -19h52c45 0 79 31 79 79v263zM499 237c0 -18 -9 -27 -27 -27h-157c-51 0 -79 29 -79 80c0 20 6 23 26 26h211c17 0 26 -10 26 -27v-52z" />
    <glyph glyph-name="A" unicode="A" 
d="M394 500c0 107 -77 184 -184 184c-110 0 -185 -75 -185 -184v-105c0 -23 5 -38 19 -53c-13 -15 -19 -32 -19 -53v-263c0 -15 11 -26 27 -26c15 0 26 11 26 26v263c0 17 10 27 26 27h211c15 0 26 -5 26 -27v-263c0 -15 11 -26 27 -26c15 0 26 11 26 26v263
c0 23 -5 38 -19 53c13 15 19 32 19 53v105zM341 500v-105c0 -17 -10 -27 -26 -27h-210c-20 0 -27 7 -27 27v105c0 81 51 131 132 131s131 -50 131 -131z" />
    <glyph glyph-name="B" unicode="B" 
d="M308 342c58 32 86 84 86 158c0 108 -76 184 -184 184h-106c-48 0 -79 -34 -79 -79v-210c0 -23 5 -38 19 -53c-13 -15 -19 -32 -19 -53v-210c0 -48 34 -79 79 -79h106c109 0 184 75 184 184c0 71 -27 121 -86 158zM210 316c80 0 131 -52 131 -132
c0 -82 -49 -131 -131 -131h-105c-19 0 -27 7 -27 26v210c0 17 10 27 26 27h106zM341 500c0 -82 -50 -132 -131 -132h-105c-20 0 -27 7 -27 27v210c0 18 8 26 26 26h106c81 0 131 -50 131 -131z" />
    <glyph glyph-name="C" unicode="C" 
d="M341 500c0 -15 11 -26 27 -26c17 0 26 9 26 26c0 107 -77 184 -184 184c-110 0 -185 -75 -185 -184v-316c0 -107 76 -184 185 -184s184 75 184 184c0 14 -12 26 -26 26c-18 0 -27 -9 -27 -26c0 -81 -50 -131 -131 -131c-82 0 -132 50 -132 131v316c0 81 51 131 132 131
s131 -50 131 -131z" />
    <glyph glyph-name="D" unicode="D" 
d="M394 500c0 108 -76 184 -184 184h-106c-48 0 -79 -34 -79 -79v-526c0 -48 34 -79 79 -79h106c109 0 184 75 184 184v316zM341 500v-316c0 -81 -50 -131 -131 -131h-105c-19 0 -27 7 -27 26v526c0 18 8 26 26 26h106c81 0 131 -50 131 -131z" />
    <glyph glyph-name="E" unicode="E" 
d="M78 605c0 17 10 26 27 26h263c15 0 26 11 26 27c0 14 -12 26 -26 26h-264c-45 0 -79 -33 -79 -79v-210c0 -21 6 -38 19 -53c-14 -15 -14 -16 -19 -53v-210c0 -46 33 -79 79 -79h264c15 0 26 11 26 26c0 14 -12 27 -26 27h-264c-20 0 -23 6 -26 26v210c0 15 5 27 27 27
h105c17 0 26 9 26 26c0 14 -12 26 -26 26h-106c-17 0 -26 8 -26 27v210z" />
    <glyph glyph-name="F" unicode="F" 
d="M394 658c0 14 -12 26 -26 26h-264c-45 0 -79 -33 -79 -79v-210c0 -21 6 -38 19 -53c-14 -15 -14 -16 -19 -53v-263c0 -15 11 -26 27 -26c15 0 26 11 26 26v263c0 15 5 27 27 27h105c17 0 26 9 26 26c0 14 -12 26 -26 26h-106c-17 0 -26 8 -26 27v210c0 17 10 26 27 26
h263c15 0 26 11 26 27z" />
    <glyph glyph-name="G" unicode="G" 
d="M341 500c0 -15 11 -26 27 -26c17 0 26 9 26 26c0 107 -77 184 -184 184c-110 0 -185 -75 -185 -184v-316c0 -107 76 -184 185 -184h105c45 0 79 31 79 79v210c0 46 -33 79 -79 79h-105c-18 0 -27 -9 -27 -26c0 -15 11 -26 27 -26h105c17 0 26 -10 26 -27v-210
c0 -20 -6 -23 -26 -26h-105c-82 0 -132 50 -132 131v316c0 81 51 131 132 131s131 -50 131 -131z" />
    <glyph glyph-name="H" unicode="H" 
d="M394 658c0 14 -12 26 -26 26s-27 -12 -27 -26v-263c0 -21 -6 -24 -26 -27h-211c-17 0 -26 8 -26 27v263c0 14 -12 26 -26 26s-27 -12 -27 -26v-263c0 -21 6 -38 19 -53c-13 -15 -19 -32 -19 -53v-263c0 -15 11 -26 27 -26c15 0 26 11 26 26v263c0 17 10 27 26 27h211
c15 0 26 -5 26 -27v-263c0 -15 11 -26 27 -26c15 0 26 11 26 26v263c0 22 -6 40 -19 53c13 14 19 31 19 53v263z" />
    <glyph glyph-name="I" unicode="I" 
d="M236 79v526c0 16 10 26 27 26h105c15 0 26 11 26 27c0 14 -12 26 -26 26h-106c-20 0 -37 -6 -52 -19c-15 13 -32 19 -53 19h-105c-14 0 -27 -12 -27 -26c0 -15 12 -27 27 -27h105c16 0 26 -10 26 -26v-526c0 -18 -8 -26 -26 -26h-105c-15 0 -27 -12 -27 -27
s11 -26 27 -26h105c22 0 40 6 53 19c13 -13 30 -19 52 -19h106c15 0 26 11 26 26c0 14 -12 27 -26 27h-106c-20 0 -23 6 -26 26z" />
    <glyph glyph-name="J" unicode="J" 
d="M394 658c0 14 -12 26 -26 26s-27 -12 -27 -26v-474c0 -81 -50 -131 -131 -131c-82 0 -132 50 -132 131c0 14 -12 26 -26 26c-18 0 -27 -9 -27 -26c0 -107 76 -184 185 -184s184 75 184 184v474z" />
    <glyph glyph-name="K" unicode="K" 
d="M394 658c0 14 -12 26 -26 26s-27 -12 -27 -26v-158c0 -82 -50 -132 -131 -132h-106c-17 0 -26 8 -26 27v263c0 14 -12 26 -26 26s-27 -12 -27 -26v-263c0 -21 6 -38 19 -53c-13 -15 -19 -32 -19 -53v-263c0 -15 11 -26 27 -26c15 0 26 11 26 26v263c0 17 10 27 26 27h106
c80 0 131 -52 131 -132v-158c0 -15 11 -26 27 -26c15 0 26 11 26 26v158c0 71 -27 121 -86 158c58 32 86 84 86 158v158z" />
    <glyph glyph-name="L" unicode="L" 
d="M394 26c0 14 -12 27 -26 27h-264c-20 0 -23 6 -26 26v579c0 14 -12 26 -26 26s-27 -12 -27 -26v-579c0 -46 33 -79 79 -79h264c15 0 26 11 26 26z" />
    <glyph glyph-name="M" unicode="M" horiz-adv-x="629" 
d="M604 500c0 108 -76 184 -184 184h-53c-21 0 -38 -6 -53 -19c-15 13 -32 19 -52 19c-118 0 -158 -11 -200 -68c-25 -33 -37 -72 -37 -116v-474c0 -16 10 -26 26 -26c14 0 27 12 27 26v474c0 81 50 131 131 131h53c16 0 26 -10 26 -26v-579c0 -16 10 -26 26 -26
c14 0 27 12 27 26v579c0 18 8 26 26 26h53c81 0 131 -50 131 -131v-474c0 -15 11 -26 27 -26c15 0 26 11 26 26v474z" />
    <glyph glyph-name="N" unicode="N" 
d="M394 500c0 107 -77 184 -184 184c-110 0 -185 -75 -185 -184v-474c0 -15 11 -26 27 -26c15 0 26 11 26 26v474c0 81 51 131 132 131s131 -50 131 -131v-474c0 -15 11 -26 27 -26c15 0 26 11 26 26v474z" />
    <glyph glyph-name="O" unicode="O" 
d="M394 500c0 107 -77 184 -184 184c-110 0 -185 -75 -185 -184v-316c0 -107 76 -184 185 -184s184 75 184 184v316zM341 500v-316c0 -81 -50 -131 -131 -131c-82 0 -132 50 -132 131v316c0 81 51 131 132 131s131 -50 131 -131z" />
    <glyph glyph-name="P" unicode="P" 
d="M394 500c0 108 -76 184 -184 184h-106c-45 0 -79 -33 -79 -79v-210c0 -21 6 -38 19 -53c-13 -15 -19 -32 -19 -53v-263c0 -15 11 -26 27 -26c15 0 26 11 26 26v263c0 17 10 27 26 27h106c109 0 184 75 184 184zM341 500c0 -82 -50 -132 -131 -132h-106
c-17 0 -26 8 -26 27v210c0 17 10 26 27 26h105c81 0 131 -50 131 -131z" />
    <glyph glyph-name="Q" unicode="Q" 
d="M394 500c0 107 -77 184 -184 184c-110 0 -185 -75 -185 -184v-316c0 -93 70 -177 148 -177c14 2 26 7 37 14c15 -12 17 -13 56 -14c74 19 128 93 128 177v316zM341 500v-316c0 -55 -33 -110 -84 -125c-16 0 -21 5 -21 20v105c0 14 -12 26 -26 26c-18 0 -27 -9 -27 -26
v-105c0 -15 -5 -20 -21 -20c-52 16 -84 63 -84 125v316c0 81 51 131 132 131s131 -50 131 -131z" />
    <glyph glyph-name="R" unicode="R" 
d="M308 342c58 32 86 84 86 158c0 108 -76 184 -184 184h-106c-48 0 -79 -34 -79 -79v-210c0 -23 5 -38 19 -53c-13 -15 -19 -32 -19 -53v-263c0 -15 11 -26 27 -26c15 0 26 11 26 26v263c0 17 10 27 26 27h106c80 0 131 -52 131 -132v-158c0 -15 11 -26 27 -26
c15 0 26 11 26 26v158c0 71 -27 121 -86 158zM341 500c0 -82 -50 -132 -131 -132h-105c-20 0 -27 7 -27 27v210c0 18 8 26 26 26h106c81 0 131 -50 131 -131z" />
    <glyph glyph-name="S" unicode="S" 
d="M341 500c0 -15 11 -26 27 -26c17 0 26 9 26 26c0 107 -77 184 -184 184c-110 0 -185 -75 -185 -184c0 -107 76 -184 185 -184c79 0 131 -52 131 -132c0 -81 -50 -131 -131 -131c-82 0 -132 50 -132 131c0 14 -12 26 -26 26c-18 0 -27 -9 -27 -26c0 -107 76 -184 185 -184
s184 75 184 184c0 107 -77 184 -184 184c-79 0 -132 53 -132 132c0 81 51 131 132 131s131 -50 131 -131z" />
    <glyph glyph-name="T" unicode="T" 
d="M394 658c0 14 -12 26 -26 26h-106c-21 0 -38 -6 -53 -19c-15 13 -32 19 -52 19h-105c-14 0 -27 -12 -27 -26c0 -15 12 -27 27 -27h105c16 0 26 -10 26 -26v-579c0 -15 11 -26 27 -26c15 0 26 11 26 26v579c0 18 8 26 26 26h106c15 0 26 11 26 27z" />
    <glyph glyph-name="U" unicode="U" 
d="M394 658c0 14 -12 26 -26 26s-27 -12 -27 -26v-474c0 -81 -50 -131 -131 -131c-82 0 -132 50 -132 131v474c0 14 -12 26 -26 26s-27 -12 -27 -26v-474c0 -107 76 -184 185 -184s184 75 184 184v474z" />
    <glyph glyph-name="V" unicode="V" 
d="M394 658c0 14 -12 26 -26 26s-27 -12 -27 -26v-316c0 -141 -32 -193 -131 -267c-91 65 -132 119 -132 267v316c0 14 -12 26 -26 26s-27 -12 -27 -26v-316c0 -143 37 -223 133 -294c16 -12 24 -19 25 -22c0 -15 11 -26 27 -26c15 0 26 11 26 26c2 5 16 16 25 22
c94 69 133 144 133 294v316z" />
    <glyph glyph-name="W" unicode="W" horiz-adv-x="629" 
d="M604 658c0 14 -12 26 -26 26s-27 -12 -27 -26v-474c0 -82 -49 -131 -131 -131h-53c-20 0 -23 6 -26 26v579c0 15 -11 26 -27 26c-15 0 -26 -11 -26 -26v-579c0 -16 -10 -26 -27 -26h-52c-82 0 -131 49 -131 131v474c0 15 -11 26 -27 26c-15 0 -26 -11 -26 -26v-474
c0 -109 75 -184 184 -184h53c19 0 37 6 52 19c15 -14 16 -14 53 -19h53c109 0 184 75 184 184v474z" />
    <glyph glyph-name="X" unicode="X" 
d="M394 658c0 14 -12 26 -26 26s-27 -12 -27 -26v-158c0 -80 -52 -132 -131 -132s-132 53 -132 132v158c0 14 -12 26 -26 26s-27 -12 -27 -26v-158c0 -64 32 -126 83 -158c-52 -33 -83 -92 -83 -158v-158c0 -15 11 -26 27 -26c15 0 26 11 26 26v158c0 78 54 132 132 132
c79 0 131 -52 131 -132v-158c0 -15 11 -26 27 -26c15 0 26 11 26 26v158c0 65 -32 127 -83 158c52 33 83 92 83 158v158z" />
    <glyph glyph-name="Y" unicode="Y" 
d="M394 658c0 14 -12 26 -26 26s-27 -12 -27 -26v-158c0 -58 -36 -111 -85 -125c-20 -5 -36 -13 -46 -23c-13 12 -25 18 -47 23c-50 14 -85 66 -85 125v158c0 14 -12 26 -26 26s-27 -12 -27 -26v-158c0 -84 55 -159 129 -177c19 -4 29 -16 29 -34v-263c0 -15 11 -26 27 -26
c15 0 26 11 26 26v263c0 20 10 29 34 35c75 22 124 93 124 176v158z" />
    <glyph glyph-name="Z" unicode="Z" 
d="M232 327c108 163 162 255 162 278c0 48 -34 79 -79 79h-263c-14 0 -27 -12 -27 -26c0 -15 12 -27 27 -27h263c16 0 26 -9 26 -25c-3 -20 -62 -113 -230 -365c-59 -92 -86 -142 -86 -162c0 -48 34 -79 79 -79h264c15 0 26 11 26 26c0 14 -12 27 -26 27h-264
c-16 0 -26 9 -26 25c1 15 53 99 154 249z" />
    <glyph glyph-name="bracketleft" unicode="[" horiz-adv-x="260" 
d="M77 605c0 17 10 26 27 26h105c15 0 26 11 26 27c0 14 -12 26 -26 26h-106c-45 0 -78 -33 -78 -79v-526c0 -47 32 -79 78 -79h106c15 0 26 11 26 26c0 14 -12 27 -26 27h-106c-20 0 -23 6 -26 26v526z" />
    <glyph glyph-name="backslash" unicode="\" 
d="M78 658c0 14 -12 26 -26 26s-27 -12 -27 -26c0 -76 16 -102 204 -394c82 -128 112 -191 112 -238c0 -15 11 -26 27 -26c15 0 26 11 26 26c0 55 -41 147 -111 253c-173 265 -205 320 -205 379z" />
    <glyph glyph-name="bracketright" unicode="]" horiz-adv-x="260" 
d="M235 605c0 48 -34 79 -79 79h-105c-15 0 -26 -11 -26 -26c0 -18 9 -27 26 -27h105c16 0 26 -10 26 -26v-526c0 -18 -8 -26 -26 -26h-105c-15 0 -26 -11 -26 -27c0 -17 9 -26 26 -26h105c48 0 79 34 79 79v526z" />
    <glyph glyph-name="asciicircum" unicode="^" 
d="M394 500c0 67 -24 87 -143 146c-9 5 -14 9 -15 12c0 14 -12 26 -26 26s-27 -12 -27 -26c-2 -5 -13 -12 -43 -26c-81 -37 -115 -74 -115 -132c0 -15 11 -26 27 -26c17 0 26 9 26 26c0 36 18 55 84 84c27 14 39 20 48 27c15 -12 21 -15 47 -27c63 -29 84 -49 84 -84
c0 -15 11 -26 27 -26c17 0 26 9 26 26z" />
    <glyph glyph-name="underscore" unicode="_" horiz-adv-x="418" 
d="M393 -132c0 14 -12 27 -26 27h-316c-15 0 -26 -11 -26 -27c0 -17 9 -26 26 -26h316c14 0 26 12 26 26z" />
    <glyph glyph-name="grave" unicode="`" horiz-adv-x="102" 
d="M77 658c0 14 -12 26 -26 26c-15 0 -26 -11 -26 -26v-158c0 -17 9 -26 26 -26s26 9 26 26v158z" />
    <glyph glyph-name="a" unicode="a" 
d="M394 237c0 86 -62 131 -132 131h-52c-18 0 -27 -9 -27 -26c0 -15 11 -26 27 -26h52c48 0 79 -31 79 -79c0 -17 -9 -27 -26 -27h-211c-45 0 -79 -33 -79 -79c0 -78 54 -131 132 -131h158c45 0 79 31 79 79v52c0 21 -6 38 -19 53c13 14 19 31 19 53zM341 131v-52
c0 -20 -6 -23 -26 -26h-158c-49 0 -79 30 -79 79c0 17 10 26 27 26h210c17 0 26 -10 26 -27z" />
    <glyph glyph-name="b" unicode="b" 
d="M394 184c0 108 -76 184 -184 184h-106c-17 0 -26 8 -26 27v263c0 14 -12 26 -26 26s-27 -12 -27 -26v-263c0 -21 6 -38 19 -53c-13 -15 -19 -32 -19 -53v-210c0 -48 34 -79 79 -79h106c109 0 184 75 184 184zM341 184c0 -82 -49 -131 -131 -131h-106c-16 0 -26 10 -26 26
v210c0 17 10 27 26 27h106c80 0 131 -52 131 -132z" />
    <glyph glyph-name="c" unicode="c" 
d="M78 184c0 78 54 132 132 132h158c17 0 26 9 26 26c0 14 -12 26 -26 26h-158c-110 0 -185 -75 -185 -184c0 -97 64 -184 185 -184h158c15 0 26 11 26 26c0 14 -12 27 -26 27h-158c-82 0 -132 49 -132 131z" />
    <glyph glyph-name="d" unicode="d" 
d="M394 658c0 14 -12 26 -26 26s-27 -12 -27 -26v-263c0 -17 -10 -27 -26 -27h-105c-110 0 -185 -75 -185 -184c0 -97 64 -184 185 -184h105c45 0 79 31 79 79v210c0 21 -6 38 -19 53c13 15 19 32 19 53v263zM341 289v-210c0 -20 -6 -23 -26 -26h-105
c-82 0 -132 49 -132 131c0 78 54 132 132 132h105c17 0 26 -10 26 -27z" />
    <glyph glyph-name="e" unicode="e" 
d="M394 237c0 78 -54 131 -132 131h-105c-77 0 -132 -56 -132 -131c0 -22 6 -40 19 -53c-14 -15 -14 -16 -19 -53c0 -78 54 -131 132 -131h53c15 0 26 11 26 26c0 14 -12 27 -26 27h-53c-49 0 -79 30 -79 79c0 16 10 26 27 26h210c48 0 79 34 79 79zM341 237
c0 -17 -10 -27 -26 -27h-210c-15 0 -27 5 -27 27c0 48 30 79 79 79h105c48 0 79 -30 79 -79z" />
    <glyph glyph-name="f" unicode="f" 
d="M394 658c0 14 -12 26 -26 26h-158c-110 0 -185 -75 -185 -184v-105c0 -23 5 -38 19 -53c-13 -15 -19 -32 -19 -53v-263c0 -15 11 -26 27 -26c15 0 26 11 26 26v263c0 17 10 27 26 27h106c17 0 26 9 26 26c0 14 -12 26 -26 26h-106c-17 2 -26 11 -26 27v105
c0 81 51 131 132 131h158c15 0 26 11 26 27z" />
    <glyph glyph-name="g" unicode="g" 
d="M394 289c0 46 -33 79 -79 79h-105c-110 0 -185 -75 -185 -184c0 -97 64 -184 185 -184h105c18 0 26 -8 26 -26c0 -48 -31 -79 -79 -79h-52c-15 0 -27 -12 -27 -27s11 -26 27 -26h52c77 0 132 55 132 132c0 22 -5 37 -19 52c13 14 19 31 19 53v210zM210 53
c-82 0 -132 49 -132 131c0 78 54 132 132 132h105c17 0 26 -10 26 -27v-210c0 -20 -6 -23 -26 -26h-105z" />
    <glyph glyph-name="h" unicode="h" 
d="M394 184c0 108 -76 184 -184 184h-106c-17 2 -26 11 -26 27v263c0 14 -12 26 -26 26s-27 -12 -27 -26v-263c0 -23 5 -38 19 -53c-13 -15 -19 -32 -19 -53v-263c0 -15 11 -26 27 -26c15 0 26 11 26 26v263c0 17 10 27 26 27h106c80 0 131 -52 131 -132v-158
c0 -15 11 -26 27 -26c15 0 26 11 26 26v158z" />
    <glyph glyph-name="i" unicode="i" horiz-adv-x="102" 
d="M77 342c0 14 -12 26 -26 26c-17 0 -26 -9 -26 -26v-316c0 -17 9 -26 26 -26c15 0 26 11 26 26v316zM77 500c0 14 -12 26 -26 26c-15 0 -26 -11 -26 -26c0 -17 9 -26 26 -26s26 9 26 26z" />
    <glyph glyph-name="j" unicode="j" horiz-adv-x="260" 
d="M235 342c0 17 -9 26 -26 26s-26 -9 -26 -26v-316c0 -79 -52 -131 -132 -131c-15 0 -26 -11 -26 -27c0 -15 11 -26 26 -26c109 0 184 75 184 184v316zM235 500c0 17 -9 26 -26 26c-15 0 -26 -11 -26 -26c0 -16 10 -26 26 -26c17 0 26 9 26 26z" />
    <glyph glyph-name="k" unicode="k" 
d="M310 341c52 32 84 94 84 159c0 14 -12 26 -26 26s-27 -12 -27 -26c0 -80 -52 -132 -131 -132h-106c-17 2 -26 11 -26 27v263c0 14 -12 26 -26 26s-27 -12 -27 -26v-263c0 -23 5 -38 19 -53c-13 -15 -19 -32 -19 -53v-263c0 -15 11 -26 27 -26c15 0 26 11 26 26v263
c0 17 10 27 26 27h106c80 0 131 -52 131 -132v-158c0 -15 11 -26 27 -26c15 0 26 11 26 26v158c0 72 -27 122 -84 157z" />
    <glyph glyph-name="l" unicode="l" horiz-adv-x="102" 
d="M77 658c0 14 -12 26 -26 26c-15 0 -26 -11 -26 -26v-632c0 -17 9 -26 26 -26c15 0 26 11 26 26v632z" />
    <glyph glyph-name="m" unicode="m" horiz-adv-x="629" 
d="M604 184c0 108 -76 184 -184 184h-53c-21 0 -39 -6 -53 -18c-16 12 -33 18 -52 18c-118 0 -158 -11 -200 -68c-25 -33 -37 -72 -37 -116v-158c0 -16 10 -26 26 -26c14 0 27 12 27 26v158c0 80 51 132 131 132h53c15 0 26 -5 26 -27v-263c0 -16 10 -26 26 -26
c14 0 27 12 27 26v263c0 17 10 27 26 27h53c80 0 131 -52 131 -132v-158c0 -15 11 -26 27 -26c15 0 26 11 26 26v158z" />
    <glyph glyph-name="n" unicode="n" 
d="M394 184c0 107 -77 184 -184 184c-110 0 -185 -75 -185 -184v-158c0 -15 11 -26 27 -26c15 0 26 11 26 26v158c0 78 54 132 132 132c79 0 131 -52 131 -132v-158c0 -15 11 -26 27 -26c15 0 26 11 26 26v158z" />
    <glyph glyph-name="o" unicode="o" 
d="M394 184c0 107 -77 184 -184 184c-110 0 -185 -75 -185 -184c0 -107 76 -184 185 -184s184 75 184 184zM341 184c0 -81 -50 -131 -131 -131c-82 0 -132 50 -132 131c0 78 54 132 132 132c79 0 131 -52 131 -132z" />
    <glyph glyph-name="p" unicode="p" 
d="M394 184c0 108 -76 184 -184 184h-106c-48 0 -79 -34 -79 -79v-210c0 -21 6 -38 19 -53c-13 -13 -19 -30 -19 -52v-106c0 -15 11 -26 27 -26c14 0 26 12 26 26v106c0 16 10 26 27 26h105c109 0 184 75 184 184zM341 184c0 -82 -49 -131 -131 -131h-105
c-19 0 -27 7 -27 26v210c0 17 10 27 26 27h106c80 0 131 -52 131 -132z" />
    <glyph glyph-name="q" unicode="q" 
d="M394 289c0 46 -33 79 -79 79h-105c-110 0 -185 -75 -185 -184c0 -97 64 -184 185 -184h105c18 0 26 -8 26 -26v-106c0 -15 11 -26 27 -26c14 0 26 12 26 26v106c0 22 -5 37 -19 52c13 14 19 31 19 53v210zM210 53c-82 0 -132 49 -132 131c0 78 54 132 132 132h105
c17 0 26 -10 26 -27v-210c0 -20 -6 -23 -26 -26h-105z" />
    <glyph glyph-name="r" unicode="r" 
d="M394 342c0 14 -12 26 -26 26h-158c-110 0 -185 -75 -185 -184v-158c0 -15 11 -26 27 -26c15 0 26 11 26 26v158c0 78 54 132 132 132h158c17 0 26 9 26 26z" />
    <glyph glyph-name="s" unicode="s" 
d="M78 237c0 49 30 79 79 79h211c17 0 26 9 26 26c0 14 -12 26 -26 26h-211c-78 0 -132 -53 -132 -131c0 -46 33 -79 79 -79h211c15 0 26 -5 26 -27c0 -49 -30 -78 -79 -78h-210c-15 0 -27 -12 -27 -27s11 -26 27 -26h210c77 0 132 55 132 131c0 48 -34 79 -79 79h-211
c-17 0 -26 8 -26 27z" />
    <glyph glyph-name="t" unicode="t" 
d="M394 342c0 14 -12 26 -26 26h-106c-19 0 -26 7 -26 27v105c0 14 -12 26 -26 26s-27 -12 -27 -26v-105c0 -17 -10 -27 -26 -27h-105c-18 0 -27 -9 -27 -26c0 -15 11 -26 27 -26h105c15 0 26 -5 26 -27v-263c0 -15 11 -26 27 -26c15 0 26 11 26 26v263c0 17 10 27 26 27
h106c17 0 26 9 26 26z" />
    <glyph glyph-name="u" unicode="u" 
d="M394 342c0 14 -12 26 -26 26c-18 0 -27 -9 -27 -26v-158c0 -81 -50 -131 -131 -131c-82 0 -132 50 -132 131v158c0 14 -12 26 -26 26c-18 0 -27 -9 -27 -26v-158c0 -107 76 -184 185 -184s184 75 184 184v158z" />
    <glyph glyph-name="v" unicode="v" 
d="M394 342c0 14 -12 26 -26 26c-18 0 -27 -9 -27 -26c0 -141 -32 -193 -131 -267c-91 65 -132 119 -132 267c0 14 -12 26 -26 26c-18 0 -27 -9 -27 -26c0 -143 37 -223 133 -294c16 -12 24 -19 25 -22c0 -15 11 -26 27 -26c15 0 26 11 26 26c2 5 16 16 25 22
c94 69 133 144 133 294z" />
    <glyph glyph-name="w" unicode="w" horiz-adv-x="629" 
d="M604 342c0 14 -12 26 -26 26c-18 0 -27 -9 -27 -26v-158c0 -82 -49 -131 -131 -131h-53c-20 0 -23 6 -26 26v263c0 15 -11 26 -27 26c-17 0 -26 -9 -26 -26v-263c0 -16 -10 -26 -27 -26h-52c-82 0 -131 49 -131 131v158c0 15 -11 26 -27 26c-17 0 -26 -9 -26 -26v-158
c0 -109 75 -184 184 -184h53c19 0 37 6 52 19c15 -14 16 -14 53 -19h53c109 0 184 75 184 184v158z" />
    <glyph glyph-name="x" unicode="x" 
d="M311 184c52 33 83 92 83 158c0 14 -12 26 -26 26c-18 0 -27 -9 -27 -26c0 -80 -52 -132 -131 -132s-132 53 -132 132c0 14 -12 26 -26 26c-18 0 -27 -9 -27 -26c0 -64 32 -126 83 -158c-52 -33 -83 -92 -83 -158c0 -15 11 -26 27 -26c15 0 26 11 26 26
c0 80 52 132 132 132c79 0 131 -52 131 -132c0 -15 11 -26 27 -26c15 0 26 11 26 26c0 65 -32 127 -83 158z" />
    <glyph glyph-name="y" unicode="y" 
d="M394 342c0 14 -12 26 -26 26c-18 0 -27 -9 -27 -26v-263c0 -20 -6 -23 -26 -26h-105c-82 0 -132 50 -132 131v158c0 14 -12 26 -26 26c-18 0 -27 -9 -27 -26v-158c0 -107 76 -184 185 -184h105c18 0 26 -8 26 -26c0 -48 -31 -79 -79 -79h-52c-15 0 -27 -12 -27 -27
s11 -26 27 -26h52c77 0 132 55 132 132c0 22 -5 37 -19 52c13 14 19 31 19 53v263z" />
    <glyph glyph-name="z" unicode="z" 
d="M78 76c10 15 44 34 143 85c115 57 173 100 173 128c0 48 -34 79 -79 79h-263c-18 0 -27 -9 -27 -26c0 -15 11 -26 27 -26h263c17 -2 26 -9 26 -24c-9 -13 -67 -48 -143 -84c-115 -58 -173 -101 -173 -129c0 -48 34 -79 79 -79h264c15 0 26 11 26 26c0 14 -12 27 -26 27
h-264c-16 0 -26 9 -26 23z" />
    <glyph glyph-name="braceleft" unicode="{" horiz-adv-x="313" 
d="M262 631c15 0 26 11 26 27c0 17 -9 26 -26 26c-109 0 -184 -75 -184 -184v-105c0 -15 -5 -27 -27 -27c-17 0 -26 -9 -26 -26c0 -16 10 -26 26 -26c18 0 27 -9 27 -27v-105c0 -109 75 -184 184 -184c15 0 26 11 26 26c0 18 -9 27 -26 27c-80 0 -132 51 -132 131v105
c0 21 -6 38 -18 53c12 15 18 32 18 53v105c0 79 52 131 132 131z" />
    <glyph glyph-name="bar" unicode="|" horiz-adv-x="103" 
d="M78 816c0 15 -11 26 -27 26c-15 0 -26 -11 -26 -26v-948c0 -15 11 -26 26 -26c14 0 27 12 27 26v948z" />
    <glyph glyph-name="braceright" unicode="}" horiz-adv-x="313" 
d="M288 342c0 17 -9 26 -26 26s-26 8 -26 27v105c0 109 -76 184 -185 184c-15 0 -26 -11 -26 -26c0 -14 12 -27 26 -27c80 0 132 -50 132 -131v-105c0 -21 6 -38 19 -53c-13 -15 -19 -32 -19 -53v-105c0 -80 -52 -131 -132 -131c-15 0 -26 -11 -26 -27s10 -26 26 -26
c110 0 185 75 185 184v105c0 17 10 27 26 27c17 0 26 9 26 26z" />
    <glyph glyph-name="asciitilde" unicode="~" 
d="M394 395c0 14 -12 26 -26 26s-27 -12 -27 -26c0 -49 -30 -79 -79 -79c-19 0 -26 7 -26 26c0 48 -34 79 -79 79c-77 0 -132 -55 -132 -132c0 -15 11 -26 27 -26c15 0 26 11 26 26c0 48 30 79 79 79c16 0 26 -10 26 -26c0 -48 34 -79 79 -79c78 0 132 54 132 132z" />
    <glyph glyph-name="AE" unicode="&#xc6;" horiz-adv-x="629" 
d="M341 605c0 18 8 26 26 26h211c15 0 26 11 26 27c0 14 -12 26 -26 26h-211c-21 0 -38 -6 -53 -19c-15 13 -32 19 -52 19c-118 0 -158 -11 -200 -68c-25 -33 -37 -72 -37 -116v-105c0 -23 5 -38 19 -53c-13 -15 -19 -32 -19 -53v-263c0 -16 10 -26 26 -26c14 0 27 12 27 26
v263c0 17 10 27 26 27h158c15 0 26 -5 26 -27v-210c0 -46 33 -79 79 -79h211c15 0 26 11 26 26c0 14 -12 27 -26 27h-211c-20 0 -23 6 -26 26v210c0 17 10 27 26 27h105c18 0 27 9 27 26c0 15 -11 26 -27 26h-105c-19 0 -26 7 -26 27v210zM262 368h-158c-19 0 -26 7 -26 27
v105c0 81 50 131 131 131h53c16 0 26 -10 26 -26v-210c0 -17 -10 -27 -26 -27z" />
    <glyph glyph-name="ae" unicode="&#xe6;" horiz-adv-x="629" 
d="M604 237c0 73 -46 124 -119 131h-65c-48 0 -81 -15 -106 -49c-23 33 -58 49 -105 49h-52c-18 0 -27 -9 -27 -26c0 -15 11 -26 27 -26h52c49 0 79 -30 79 -79c0 -17 -9 -27 -26 -27h-158c-46 0 -79 -33 -79 -79c0 -78 54 -131 132 -131h105c28 0 52 13 66 34
c24 -24 50 -34 92 -34h52c14 0 27 12 27 26c0 15 -12 27 -27 27h-52c-59 0 -72 23 -79 79c0 20 6 23 26 26h158c48 0 79 34 79 79zM288 131v-52c0 -16 -10 -26 -27 -26h-104c-59 0 -72 23 -79 79c0 20 6 23 26 26h158c17 0 26 -10 26 -27zM551 237c0 -17 -10 -27 -26 -27
h-158c-17 0 -26 8 -26 27c0 49 30 79 79 79h52c48 0 79 -30 79 -79z" />
  </font>
</defs>
</svg>
